<?xml version="1.0" encoding="utf-8"?>
<!-- Generator: Adobe Illustrator 14.0.0, SVG Export Plug-In . SVG Version: 6.00 Build 43363)  -->
<!DOCTYPE svg PUBLIC "-//W3C//DTD SVG 1.0//EN" "http://www.w3.org/TR/2001/REC-SVG-20010904/DTD/svg10.dtd">
<svg version="1.0" id="Layer_1" xmlns="http://www.w3.org/2000/svg" xmlns:xlink="http://www.w3.org/1999/xlink" x="0px" y="0px"
	 width="100px" height="84.509px" viewBox="0 0 100 84.509" enable-background="new 0 0 100 84.509" xml:space="preserve">
<polygon points="65.818,60.524 70.158,60.524 70.158,13.839 65.818,13.839 65.818,60.524 "/>
<polygon points="74.043,60.524 78.383,60.524 78.383,16.329 74.043,16.329 74.043,60.524 "/>
<g>
	<path d="M26.087,44.904c-6.4,0-11.61,5.203-11.61,11.602c0,6.401,5.21,11.608,11.61,11.608c6.397,0,11.608-5.207,11.608-11.608
		C37.695,50.107,32.484,44.904,26.087,44.904z"/>
	<path d="M51.658,0H10.849C4.864,0,0,4.865,0,10.847v62.818c0,5.975,4.864,10.844,10.849,10.844h40.809
		c5.979,0,10.845-4.869,10.845-10.844V10.847C62.502,4.865,57.637,0,51.658,0z M26.087,72.455c-8.795,0-15.947-7.152-15.947-15.949
		c0-8.789,7.151-15.941,15.947-15.941c8.792,0,15.943,7.152,15.943,15.941C42.03,65.303,34.879,72.455,26.087,72.455z
		 M45.215,25.765c-5.308,0-9.628-4.317-9.628-9.627c0-5.312,4.32-9.632,9.628-9.632c5.314,0,9.639,4.321,9.639,9.632
		C54.854,21.448,50.529,25.765,45.215,25.765z"/>
	<path d="M45.215,10.841c-2.915,0-5.289,2.376-5.289,5.297c0,2.919,2.375,5.289,5.289,5.289c2.921,0,5.298-2.37,5.298-5.289
		C50.513,13.217,48.136,10.841,45.215,10.841z"/>
</g>
<polygon points="86.615,30.677 86.615,22.833 82.274,22.833 82.274,64.671 65.886,64.671 65.886,69.012 86.548,69.012 
	86.548,68.941 86.615,68.941 86.615,59.979 100,59.979 100,30.677 "/>
</svg>
